<svg xmlns="http://www.w3.org/2000/svg" xmlns:se="http://svg-edit.googlecode.com" xmlns:xlink="http://www.w3.org/1999/xlink" xmlns:dc="http://purl.org/dc/elements/1.1/" xmlns:cc="http://creativecommons.org/ns#" xmlns:rdf="http://www.w3.org/1999/02/22-rdf-syntax-ns#" xmlns:inkscape="http://www.inkscape.org/namespaces/inkscape" width="777" height="480" style="">                                    <title>my vector image</title>                                    <!-- Created with Vector Paint - http://www.vectorpaint.yaks.com/ https://chrome.google.com/webstore/detail/hnbpdiengicdefcjecjbnjnoifekhgdo -->                                    <rect id="backgroundrect" width="100%" height="100%" x="0" y="0" fill="#FFFFFF" stroke="none"/>                                <g class="currentLayer" style=""><title>Layer 1</title><rect fill="#4a90d6" stroke="#222222" stroke-width="2" stroke-linejoin="round" stroke-dashoffset="" fill-rule="nonzero" id="svg_1" x="294" y="177" width="1" height="36" style="color: rgb(0, 0, 0);"/><path fill="#4a90d6" fill-opacity="1" stroke="#222222" stroke-opacity="1" stroke-width="2" stroke-dasharray="none" stroke-linejoin="round" stroke-linecap="butt" stroke-dashoffset="" fill-rule="nonzero" opacity="1" marker-start="" marker-mid="" marker-end="" d="M287.19998630881264,204.28571490365636L301.48570083781124,204.28571490365636" id="svg_3"/><path fill="#4a90d6" fill-opacity="1" stroke="#222222" stroke-opacity="1" stroke-width="2" stroke-dasharray="none" stroke-linejoin="round" stroke-linecap="butt" stroke-dashoffset="" fill-rule="nonzero" opacity="1" marker-start="" marker-mid="" marker-end="" d="M293.628557846862,211.85714360402557L287.91427203526257,204.0000006130763" id="svg_2"/><path fill="#4a90d6" fill-opacity="1" stroke="#222222" stroke-opacity="1" stroke-width="2" stroke-dasharray="none" stroke-linejoin="round" stroke-linecap="butt" stroke-dashoffset="" fill-rule="nonzero" opacity="1" marker-start="" marker-mid="" marker-end="" d="M294.34284357331194,212.7142864757655 L300.7714151113613,204.85714348481628 " id="svg_4" class=""/><polyline fill="none" stroke="#222222" stroke-width="2" stroke-linejoin="round" stroke-dashoffset="" fill-rule="nonzero" marker-start="" marker-mid="" marker-end="" id="svg_6" points="294.19998642802193,206.2857149377161 294.19998642802193,206.2857149377161 293.485700701572,206.2857149377161 293.485700701572,206.2857149377161 293.485700701572,206.2857149377161 292.77141497512207,206.2857149377161 292.77141497512207,206.2857149377161 292.05712924867214,206.2857149377161 292.05712924867214,206.2857149377161 292.05712924867214,206.2857149377161 291.3428435222222,206.2857149377161 291.3428435222222,206.2857149377161 291.3428435222222,206.2857149377161 291.3428435222222,206.2857149377161 291.3428435222222,206.2857149377161 291.3428435222222,206.2857149377161 290.6285577957723,205.5714292112662 290.6285577957723,205.5714292112662 290.6285577957723,205.5714292112662 291.3428435222222,206.2857149377161 291.3428435222222,206.2857149377161 291.3428435222222,206.2857149377161 291.3428435222222,206.2857149377161 291.3428435222222,206.2857149377161 291.3428435222222,206.2857149377161 292.05712924867214,206.2857149377161 292.05712924867214,207.00000066416607 292.05712924867214,207.00000066416607 292.05712924867214,207.00000066416607 292.05712924867214,207.00000066416607 292.05712924867214,207.00000066416607 292.05712924867214,207.00000066416607 292.05712924867214,207.00000066416607 292.05712924867214,207.00000066416607 292.05712924867214,207.714286390616 292.05712924867214,207.714286390616 292.05712924867214,207.714286390616 292.05712924867214,207.714286390616 292.05712924867214,207.714286390616 292.05712924867214,208.42857211706593 292.05712924867214,208.42857211706593 292.77141497512207,208.42857211706593 292.77141497512207,208.42857211706593 292.77141497512207,209.14285784351586 292.77141497512207,209.14285784351586 292.77141497512207,209.14285784351586 292.77141497512207,209.14285784351586 293.485700701572,209.14285784351586 293.485700701572,209.14285784351586 293.485700701572,209.14285784351586 294.19998642802193,208.42857211706593 294.91427215447186,208.42857211706593 294.91427215447186,207.714286390616 295.6285578809218,207.714286390616 296.3428436073717,207.714286390616 296.3428436073717,207.714286390616 296.3428436073717,207.714286390616 296.3428436073717,207.714286390616 297.05712933382165,207.714286390616 297.05712933382165,207.00000066416607 297.05712933382165,207.00000066416607 297.7714150602716,207.00000066416607 297.7714150602716,207.00000066416607 297.7714150602716,207.00000066416607 298.4857007867215,206.2857149377161 298.4857007867215,205.5714292112662 298.4857007867215,204.85714348481628 298.4857007867215,204.85714348481628 298.4857007867215,204.85714348481628 298.4857007867215,204.85714348481628 298.4857007867215,204.14285775836635 298.4857007867215,204.14285775836635 298.4857007867215,204.14285775836635 298.4857007867215,204.14285775836635 297.7714150602716,204.14285775836635 297.7714150602716,204.14285775836635 297.7714150602716,204.85714348481628 297.7714150602716,204.85714348481628 297.7714150602716,204.85714348481628 297.05712933382165,205.5714292112662 297.05712933382165,206.2857149377161 296.3428436073717,206.2857149377161 296.3428436073717,206.2857149377161 295.6285578809218,207.00000066416607 294.91427215447186,207.00000066416607 294.91427215447186,207.714286390616 294.19998642802193,207.714286390616 294.19998642802193,207.714286390616 294.19998642802193,207.714286390616 294.19998642802193,207.714286390616 294.19998642802193,207.714286390616 294.19998642802193,207.714286390616 294.91427215447186,207.714286390616 294.91427215447186,207.714286390616 294.91427215447186,207.714286390616 295.6285578809218,207.714286390616 295.6285578809218,207.714286390616 295.6285578809218,207.714286390616 296.3428436073717,207.714286390616 296.3428436073717,207.714286390616 297.05712933382165,207.714286390616 297.05712933382165,207.714286390616 297.05712933382165,207.714286390616 297.05712933382165,207.714286390616 297.05712933382165,207.714286390616 297.05712933382165,207.714286390616 297.05712933382165,208.42857211706593 297.05712933382165,208.42857211706593 297.05712933382165,208.42857211706593 297.05712933382165,208.42857211706593 297.05712933382165,208.42857211706593 297.05712933382165,208.42857211706593 297.05712933382165,208.42857211706593 296.3428436073717,209.14285784351586 296.3428436073717,209.14285784351586 296.3428436073717,209.14285784351586 296.3428436073717,209.14285784351586 296.3428436073717,209.14285784351586 295.6285578809218,209.14285784351586 295.6285578809218,209.14285784351586 295.6285578809218,209.14285784351586 295.6285578809218,209.14285784351586 295.6285578809218,209.14285784351586 294.91427215447186,209.14285784351586 294.91427215447186,209.14285784351586 294.91427215447186,209.14285784351586 294.91427215447186,208.42857211706593 294.91427215447186,208.42857211706593 295.6285578809218,208.42857211706593 295.6285578809218,208.42857211706593 295.6285578809218,208.42857211706593 295.6285578809218,208.42857211706593 295.6285578809218,208.42857211706593 296.3428436073717,208.42857211706593 296.3428436073717,208.42857211706593 296.3428436073717,208.42857211706593 296.3428436073717,207.714286390616 297.05712933382165,207.714286390616 297.05712933382165,207.714286390616 297.05712933382165,207.714286390616 297.05712933382165,207.00000066416607 296.3428436073717,207.00000066416607 296.3428436073717,207.00000066416607 296.3428436073717,207.00000066416607 296.3428436073717,207.00000066416607 296.3428436073717,207.00000066416607 296.3428436073717,206.2857149377161 296.3428436073717,206.2857149377161 296.3428436073717,206.2857149377161 296.3428436073717,205.5714292112662 296.3428436073717,205.5714292112662 296.3428436073717,205.5714292112662 296.3428436073717,204.85714348481628 296.3428436073717,204.85714348481628 296.3428436073717,204.85714348481628 296.3428436073717,204.85714348481628 296.3428436073717,204.85714348481628 296.3428436073717,204.85714348481628 296.3428436073717,204.85714348481628 295.6285578809218,204.85714348481628 295.6285578809218,204.85714348481628 295.6285578809218,204.85714348481628 296.3428436073717,204.85714348481628 295.6285578809218,204.85714348481628 295.6285578809218,205.5714292112662 295.6285578809218,205.5714292112662 294.91427215447186,206.2857149377161 294.19998642802193,206.2857149377161 294.19998642802193,206.2857149377161 294.19998642802193,207.00000066416607 294.19998642802193,207.00000066416607 294.19998642802193,207.00000066416607 294.19998642802193,207.714286390616 294.19998642802193,207.714286390616 294.19998642802193,207.714286390616 294.19998642802193,207.714286390616 294.19998642802193,207.714286390616 294.91427215447186,207.714286390616 294.91427215447186,208.42857211706593 294.91427215447186,208.42857211706593 294.91427215447186,208.42857211706593 294.91427215447186,208.42857211706593 294.91427215447186,208.42857211706593 294.91427215447186,209.14285784351586 294.91427215447186,209.14285784351586 294.91427215447186,209.14285784351586 294.91427215447186,209.85714356996576 294.91427215447186,209.85714356996576 294.91427215447186,209.85714356996576 294.91427215447186,210.57142929641572 294.91427215447186,210.57142929641572 294.91427215447186,210.57142929641572 294.91427215447186,210.57142929641572 294.19998642802193,210.57142929641572 294.19998642802193,210.57142929641572 294.19998642802193,210.57142929641572 294.19998642802193,210.57142929641572 " style="color: rgb(0, 0, 0);" class=""/><polyline fill="none" stroke="#222222" stroke-width="2" stroke-linejoin="round" stroke-dashoffset="" fill-rule="nonzero" marker-start="" marker-mid="" marker-end="" id="svg_5" points="299.91427223962137,205.1428577753962 299.91427223962137,205.1428577753962 " style="color: rgb(0, 0, 0);"/></g></svg>